# xmcd
#
# Track frame offsets:
#	150
#	38334
#	78585
#	116248
#	141486
#	180217
#
# Disc length: 2860 seconds
#
# Revision: 0
# Processed by: cddbd v1.5.2PL0 Copyright (c) Steve Scherf et al.
# Submitted via: audiograbber 1.83.01
#
DISCID=470b2a06
DTITLE=Grateful Dead - 94-06-25 Sam Boyd Silver Bowl, Las Vegas NV
DYEAR=1900
DGENRE=
TTITLE0=Mississippi Half-Step Uptown Toodeloo
TTITLE1=Little Red Rooster
TTITLE2=Lazy River Road
TTITLE3=When I Paint My Masterpiece
TTITLE4=Loose Lucy
TTITLE5=Cassidy
EXTD=
EXTT0=
EXTT1=
EXTT2=
EXTT3=
EXTT4=
EXTT5=
PLAYORDER=
